# File created by Blade
# Date/Time:  Tue Sep 28 14:35:47 2010
#---------------------------------------------------------
:version 1.10
:name HOM
:units
  mass 1.0
  length 1.000000
  angle deg
:documentation
     Acclaim Skeleton File
:root
   axis xyz
   order TX TY TZ RX RY RZ
   position 0.000000 0.000000 0.000000
   orientation 0 0 0
:bonedata
   begin
      id 1
      name LeftUpLeg_dum
      direction 1.000000 0.000000 0.000000
      length 3.677894
      axis 0.0 0.0 0.0 xyz
   end
   begin
      id 2
      name RightUpLeg_dum
      direction -1.000000 0.000000 0.000000
      length 3.677894
      axis 0.0 0.0 0.0 xyz
   end
   begin
      id 3
      name Spine_dum
      direction 0.000000 1.000000 0.000000
      length 0.039370
      axis 0.0 0.0 0.0 xyz
   end
   begin
      id 4
      name LeftUpLeg
      direction 0.000000 -1.000000 0.000000
      length 18.389491
      axis 0.0 0.0 0.0 xyz
      dof rx ry rz
   end
   begin
      id 5
      name LeftLeg
      direction 0.000000 -1.000000 0.000000
      length 16.918313
      axis 0.0 0.0 0.0 xyz
      dof rx ry rz
   end
   begin
      id 6
      name LeftFoot
      direction 0.000000 -0.258819 0.965926
      length 6.436326
      axis 15.0 0.0 0.0 xyz
      dof rx ry rz
   end
   begin
      id 7
      name LeftToeBase
      direction 0.000000 0.000000 1.000000
      length 2.952750
      axis 0.0 0.0 0.0 xyz
      dof rx ry rz
   end
   begin
      id 8
      name RightUpLeg
      direction 0.000000 -1.000000 0.000000
      length 18.389491
      axis 0.0 0.0 0.0 xyz
      dof rx ry rz
   end
   begin
      id 9
      name RightLeg
      direction 0.000000 -1.000000 0.000000
      length 16.918313
      axis 0.0 0.0 0.0 xyz
      dof rx ry rz
   end
   begin
      id 10
      name RightFoot
      direction 0.000000 -0.258819 0.965926
      length 6.436326
      axis 15.0 0.0 0.0 xyz
      dof rx ry rz
   end
   begin
      id 11
      name RightToeBase
      direction 0.000000 0.000000 1.000000
      length 2.952750
      axis 0.0 0.0 0.0 xyz
      dof rx ry rz
   end
   begin
      id 12
      name Spine
      direction 0.000000 1.000000 0.000000
      length 9.194745
      axis 0.0 0.0 0.0 xyz
      dof rx ry rz
   end
   begin
      id 13
      name Spine1
      direction 0.000000 1.000000 0.000000
      length 0.000000
      axis 0.0 0.0 0.0 xyz
      dof rx ry rz
   end
   begin
      id 14
      name Spine1_dum1
      direction 0.000000 1.000000 0.000000
      length 9.194745
      axis 0.0 0.0 0.0 xyz
   end
   begin
      id 15
      name Spine1_dum2
      direction 0.000000 1.000000 0.000000
      length 9.194745
      axis 0.0 0.0 0.0 xyz
   end
   begin
      id 16
      name Spine1_dum3
      direction 0.000000 1.000000 0.000000
      length 9.194745
      axis 0.0 0.0 0.0 xyz
   end
   begin
      id 17
      name Neck
      direction 0.000000 1.000000 0.000000
      length 4.229598
      axis 0.0 0.0 0.0 xyz
      dof rx ry rz
   end
   begin
      id 18
      name Head
      direction 0.000000 1.000000 0.000000
      length 4.527550
      axis 0.0 0.0 0.0 xyz
      dof rx ry rz
   end
   begin
      id 19
      name LeftShoulder
      direction 1.000000 -0.000004 0.000000
      length 5.516839
      axis 0.0 0.0 -90.0 xyz
      dof rx ry rz
   end
   begin
      id 20
      name LeftArm
      direction 1.000000 -0.000004 0.000000
      length 11.033679
      axis 0.0 0.0 -90.0 xyz
      dof rx ry rz
   end
   begin
      id 21
      name LeftForeArm
      direction 1.000000 -0.000004 0.000000
      length 10.114232
      axis 0.0 0.0 -90.0 xyz
      dof rx ry rz
   end
   begin
      id 22
      name LeftHand
      direction 0.000000 0.000000 0.000000
      length 0.000000
      axis 0.0 0.0 -90.0 xyz
      dof rx ry rz
   end
   begin
      id 23
      name LeftHand_dum1
      direction 0.000000 0.000000 0.000000
      length 0.000000
      axis 0.0 0.0 -90.0 xyz
   end
   begin
      id 24
      name LeftHand_dum2
      direction 1.000000 -0.000004 0.000000
      length 3.937000
      axis 0.0 0.0 -90.0 xyz
   end
   begin
      id 25
      name LeftHandThumb
      direction 0.000000 0.000000 1.000000
      length 3.937000
      axis 0.0 0.0 -90.0 xyz
      dof rx ry rz
   end
   begin
      id 26
      name RightShoulder
      direction -1.000000 -0.000004 0.000000
      length 5.516839
      axis 0.0 0.0 90.0 xyz
      dof rx ry rz
   end
   begin
      id 27
      name RightArm
      direction -1.000000 -0.000004 0.000000
      length 11.033679
      axis 0.0 0.0 90.0 xyz
      dof rx ry rz
   end
   begin
      id 28
      name RightForeArm
      direction -1.000000 -0.000004 0.000000
      length 10.114232
      axis 0.0 0.0 90.0 xyz
      dof rx ry rz
   end
   begin
      id 29
      name RightHand
      direction 0.000000 0.000000 0.000000
      length 0.000000
      axis 0.0 0.0 90.0 xyz
      dof rx ry rz
   end
   begin
      id 30
      name RightHand_dum1
      direction 0.000000 0.000000 0.000000
      length 0.000000
      axis 0.0 0.0 90.0 xyz
   end
   begin
      id 31
      name RightHand_dum2
      direction -1.000000 -0.000004 0.000000
      length 5.393690
      axis 0.0 0.0 90.0 xyz
   end
   begin
      id 32
      name RightHandThumb
      direction 0.000000 0.000000 1.000000
      length 3.937000
      axis 0.0 0.0 90.0 xyz
      dof rx ry rz
   end
:hierarchy
   begin
      root LeftUpLeg_dum RightUpLeg_dum Spine_dum
      LeftUpLeg_dum LeftUpLeg
      RightUpLeg_dum RightUpLeg
      Spine_dum Spine
      LeftUpLeg LeftLeg
      LeftLeg LeftFoot
      LeftFoot LeftToeBase
      RightUpLeg RightLeg
      RightLeg RightFoot
      RightFoot RightToeBase
      Spine Spine1
      Spine1 Spine1_dum1 Spine1_dum2 Spine1_dum3
      Spine1_dum1 Neck
      Spine1_dum2 LeftShoulder
      Spine1_dum3 RightShoulder
      Neck Head
      LeftShoulder LeftArm
      LeftArm LeftForeArm
      LeftForeArm LeftHand
      LeftHand LeftHand_dum1 LeftHand_dum2
      LeftHand_dum1 LeftHandThumb
      RightShoulder RightArm
      RightArm RightForeArm
      RightForeArm RightHand
      RightHand RightHand_dum1 RightHand_dum2
      RightHand_dum1 RightHandThumb
   end

# File created by Blade
# Date/Time:  Tue Sep 28 14:35:42 2010
# Frame Rate: 200.000 fps
#------------------------------------------------------
:FULLY-SPECIFIED
:DEGREES
802
root  1.678341 36.348257 43.541212 7.909371 -3.721482 1.748022
LeftUpLeg  -31.876363 -1.426719 -2.194410
LeftLeg  20.665406 -0.000000 0.000000
LeftFoot  12.666658 20.879988 7.730093
LeftToeBase  -7.049687 0.000000 -0.000000
RightUpLeg  2.157236 -16.754954 -7.026521
RightLeg  34.131644 -0.000000 0.000000
RightFoot  8.447046 1.913262 -16.520627
RightToeBase  -36.632683 0.000000 -0.000000
Spine  -15.768611 0.270627 -4.841976
Spine1  18.672099 2.969607 0.655322
Neck  9.827226 1.169541 -3.006495
Head  -9.597820 2.663478 2.791542
LeftShoulder  -7.635689 -9.773904 -30.448286
LeftArm  -3.556429 47.589975 -38.804118
LeftForeArm  22.395631 -0.000000 0.000000
LeftHand  2.895282 -5.468405 -3.415368
LeftHandThumb  0.000000 -0.000000 0.000000
RightShoulder  4.298217 7.908757 23.864435
RightArm  1.347075 -37.234583 39.078313
RightForeArm  37.466594 -0.000000 0.000000
RightHand  8.655001 14.893979 0.461241
RightHandThumb  0.000000 -0.000000 0.000000
803
root  1.712835 36.390308 43.787317 7.912849 -3.659096 1.777467
LeftUpLeg  -31.725576 -1.208225 -2.436529
LeftLeg  21.083288 -0.000000 0.000000
LeftFoot  12.499757 20.682143 7.948594
LeftToeBase  -7.022412 0.000000 -0.000000
RightUpLeg  1.913686 -16.493726 -7.024117
RightLeg  34.655289 -0.000000 0.000000
RightFoot  10.076519 1.786100 -16.506829
RightToeBase  -37.113436 0.000000 -0.000000
Spine  -15.740340 0.269589 -4.911521
Spine1  18.550660 2.997105 0.635581
Neck  9.974913 1.080836 -2.942899
Head  -9.493453 2.647003 2.798299
LeftShoulder  -7.634678 -9.742253 -30.318310
LeftArm  -3.508426 47.598797 -38.867073
LeftForeArm  22.404926 -0.000000 0.000000
LeftHand  2.736480 -5.483363 -3.317716
LeftHandThumb  0.000000 -0.000000 0.000000
RightShoulder  4.248136 7.824037 23.816838
RightArm  1.315856 -37.287767 39.239071
RightForeArm  37.313434 -0.000000 0.000000
RightHand  8.580054 14.940861 0.332701
RightHandThumb  0.000000 -0.000000 0.000000
804
root  1.748875 36.433908 44.033327 7.916623 -3.597524 1.805602
LeftUpLeg  -31.533187 -0.990716 -2.672172
LeftLeg  21.411208 -0.000000 0.000000
LeftFoot  12.297249 20.488157 8.178909
LeftToeBase  -6.942601 0.000000 -0.000000
RightUpLeg  1.654552 -16.282353 -7.032744
RightLeg  35.209920 -0.000000 0.000000
RightFoot  11.618547 1.689570 -16.467262
RightToeBase  -37.121032 0.000000 -0.000000
Spine  -15.721045 0.274551 -4.972768
Spine1  18.421262 3.027255 0.624520
Neck  10.157556 1.006211 -2.906491
Head  -9.412283 2.622131 2.783389
LeftShoulder  -7.652359 -9.696488 -30.174694
LeftArm  -3.383131 47.414949 -38.889193
LeftForeArm  22.446961 -0.000000 0.000000
LeftHand  2.427197 -5.081235 -3.566175
LeftHandThumb  0.000000 -0.000000 0.000000
RightShoulder  4.194143 7.739461 23.767990
RightArm  1.297871 -37.326029 39.401966
RightForeArm  37.103374 -0.000000 0.000000
RightHand  8.514051 14.938607 0.310379
RightHandThumb  0.000000 -0.000000 0.000000
805
root  1.785248 36.477442 44.278938 7.920981 -3.547586 1.828205
LeftUpLeg  -31.284010 -0.734209 -2.917767
LeftLeg  21.657710 -0.000000 0.000000
LeftFoot  12.040109 20.301847 8.502738
LeftToeBase  -6.907039 0.000000 -0.000000
RightUpLeg  1.350850 -16.069262 -7.039589
RightLeg  35.805502 -0.000000 0.000000
RightFoot  13.166956 1.591083 -16.401847
RightToeBase  -36.979653 0.000000 -0.000000
Spine  -15.706165 0.276004 -5.021491
Spine1  18.285970 3.049114 0.614814
Neck  10.349241 0.947365 -2.871860
Head  -9.350416 2.606428 2.785126
LeftShoulder  -7.673473 -9.670839 -30.029079
LeftArm  -3.296744 47.267267 -38.951980
LeftForeArm  22.460682 -0.000000 0.000000
LeftHand  2.225188 -4.590428 -3.704736
LeftHandThumb  0.000000 -0.000000 0.000000
RightShoulder  4.128966 7.706809 23.705083
RightArm  1.220007 -37.494195 39.592743
RightForeArm  36.978684 -0.000000 0.000000
RightHand  8.292830 15.157375 0.120990
RightHandThumb  0.000000 -0.000000 0.000000
806
root  1.826733 36.520400 44.520766 7.930106 -3.526148 1.864929
LeftUpLeg  -31.013154 -0.528473 -3.154501
LeftLeg  21.830122 -0.000000 0.000000
LeftFoot  11.798427 20.175103 8.663322
LeftToeBase  -6.845752 0.000000 -0.000000
RightUpLeg  1.033832 -15.498913 -6.954758
RightLeg  36.386503 -0.000000 0.000000
RightFoot  14.662206 1.248606 -16.408054
RightToeBase  -36.471848 0.000000 -0.000000
Spine  -15.686551 0.280236 -5.062991
Spine1  18.138479 3.070677 0.602446
Neck  10.532868 0.874735 -2.828491
Head  -9.245263 2.592284 2.726180
LeftShoulder  -7.661279 -9.745243 -29.907414
LeftArm  -3.413809 47.560979 -39.171682
LeftForeArm  22.329769 -0.000000 0.000000
LeftHand  2.644828 -4.401976 -3.103410
LeftHandThumb  0.000000 -0.000000 0.000000
RightShoulder  4.081995 7.704959 23.638058
RightArm  1.160487 -37.645304 39.773547
RightForeArm  36.761372 -0.000000 0.000000
RightHand  8.217482 15.067837 0.192933
RightHandThumb  0.000000 -0.000000 0.000000
807
root  1.868298 36.563275 44.762090 7.939981 -3.533828 1.902448
LeftUpLeg  -30.694323 -0.339581 -3.384141
LeftLeg  21.898797 -0.000000 0.000000
LeftFoot  11.580069 20.100891 8.806203
LeftToeBase  -6.835866 0.000000 -0.000000
RightUpLeg  0.704628 -14.939146 -6.878939
RightLeg  36.976005 -0.000000 0.000000
RightFoot  16.171228 0.911327 -16.357029
RightToeBase  -35.800988 0.000000 -0.000000
Spine  -15.675044 0.288276 -5.102399
Spine1  17.983948 3.095313 0.597688
Neck  10.753983 0.844251 -2.830313
Head  -9.173456 2.556839 2.674770
LeftShoulder  -7.689887 -9.728210 -29.760296
LeftArm  -3.363620 47.541712 -39.288143
LeftForeArm  22.298488 -0.000000 0.000000
LeftHand  2.474388 -5.017368 -3.143335
LeftHandThumb  0.000000 -0.000000 0.000000
RightShoulder  4.031771 7.724634 23.567184
RightArm  1.095111 -37.891433 39.947439
RightForeArm  36.542817 -0.000000 0.000000
RightHand  8.177519 15.017194 0.126221
RightHandThumb  0.000000 -0.000000 0.000000
808
root  1.908824 36.606437 45.000593 7.944584 -3.550366 1.931638
LeftUpLeg  -30.347103 -0.103794 -3.613396
LeftLeg  21.925015 -0.000000 0.000000
LeftFoot  11.383427 20.019106 9.093859
LeftToeBase  -6.869101 0.000000 -0.000000
RightUpLeg  0.343999 -14.435216 -6.812790
RightLeg  37.617781 -0.000000 0.000000
RightFoot  17.577381 0.607692 -16.312444
RightToeBase  -34.742884 0.000000 -0.000000
Spine  -15.660445 0.292142 -5.137060
Spine1  17.837352 3.114239 0.597633
Neck  10.957768 0.853281 -2.851588
Head  -9.103311 2.511646 2.680884
LeftShoulder  -7.719200 -9.740529 -29.607188
LeftArm  -3.288187 47.455856 -39.380269
LeftForeArm  22.273817 -0.000000 0.000000
LeftHand  2.335305 -4.840790 -3.255914
LeftHandThumb  0.000000 -0.000000 0.000000
RightShoulder  3.983534 7.765250 23.510683
RightArm  1.041462 -38.153882 40.099637
RightForeArm  36.326711 -0.000000 0.000000
RightHand  8.062189 14.928962 0.214252
RightHandThumb  0.000000 -0.000000 0.000000
809
root  1.949074 36.651514 45.237654 7.942251 -3.577335 1.955120
LeftUpLeg  -29.973549 0.123179 -3.819925
LeftLeg  21.916129 -0.000000 0.000000
LeftFoot  11.160497 19.966526 9.296772
LeftToeBase  -6.845215 0.000000 -0.000000
RightUpLeg  -0.047258 -14.041607 -6.762375
RightLeg  38.307636 -0.000000 0.000000
RightFoot  18.996956 0.377078 -16.217482
RightToeBase  -33.649607 0.000000 -0.000000
Spine  -15.645719 0.298128 -5.157531
Spine1  17.697246 3.129646 0.603690
Neck  11.155673 0.878635 -2.882146
Head  -9.031214 2.473334 2.672185
LeftShoulder  -7.767903 -9.727046 -29.476442
LeftArm  -3.212722 47.342947 -39.462663
LeftForeArm  22.274562 -0.000000 0.000000
LeftHand  2.272852 -4.799113 -3.146301
LeftHandThumb  0.000000 -0.000000 0.000000
RightShoulder  3.938499 7.863563 23.454705
RightArm  0.940523 -38.535465 40.271441
RightForeArm  36.139862 -0.000000 0.000000
RightHand  7.902832 14.945283 0.212348
RightHandThumb  0.000000 -0.000000 0.000000
810
root  1.988752 36.695695 45.473672 7.935333 -3.612708 1.971665
LeftUpLeg  -29.573080 0.368960 -4.021438
LeftLeg  21.869092 -0.000000 0.000000
LeftFoot  10.909580 19.868885 9.462923
LeftToeBase  -6.836951 0.000000 -0.000000
RightUpLeg  -0.464418 -13.667080 -6.732924
RightLeg  39.031904 -0.000000 0.000000
RightFoot  20.365581 0.167101 -16.301179
RightToeBase  -32.455164 0.000000 -0.000000
Spine  -15.631672 0.299046 -5.172005
Spine1  17.564861 3.137941 0.613167
Neck  11.343086 0.919334 -2.912536
Head  -8.946968 2.445241 2.667500
LeftShoulder  -7.812069 -9.701845 -29.358339
LeftArm  -3.100445 47.170845 -39.523494
LeftForeArm  22.241589 -0.000000 0.000000
LeftHand  2.233821 -4.693992 -3.093191
LeftHandThumb  0.000000 -0.000000 0.000000
RightShoulder  3.894585 7.963861 23.411585
RightArm  0.857378 -38.902693 40.411388
RightForeArm  35.934603 -0.000000 0.000000
RightHand  7.794976 14.715318 0.267473
RightHandThumb  0.000000 -0.000000 0.000000
811
root  2.029485 36.739748 45.706340 7.926139 -3.652924 1.982037
LeftUpLeg  -29.158167 0.618159 -4.210612
LeftLeg  21.812296 -0.000000 0.000000
LeftFoot  10.630737 19.783508 9.713417
LeftToeBase  -6.892606 0.000000 -0.000000
RightUpLeg  -0.903847 -13.315717 -6.696057
RightLeg  39.790043 -0.000000 0.000000
RightFoot  21.671057 -0.136723 -15.921964
RightToeBase  -31.187737 0.000000 -0.000000
Spine  -15.611534 0.294524 -5.177301
Spine1  17.436593 3.137704 0.630026
Neck  11.526250 0.958680 -2.930788
Head  -8.863412 2.438543 2.667867
LeftShoulder  -7.860853 -9.677494 -29.241452
LeftArm  -3.004221 47.019425 -39.583923
LeftForeArm  22.250565 -0.000000 0.000000
LeftHand  2.350699 -4.168359 -2.881422
LeftHandThumb  0.000000 -0.000000 0.000000
RightShoulder  3.833759 8.012480 23.370985
RightArm  0.801985 -39.188673 40.537070
RightForeArm  35.800021 -0.000000 0.000000
RightHand  7.629601 14.964306 0.366377
RightHandThumb  0.000000 -0.000000 0.000000
812
root  2.072275 36.783706 45.938581 7.907421 -3.717585 1.997577
LeftUpLeg  -28.737881 0.928444 -4.413309
LeftLeg  21.713432 -0.000000 0.000000
LeftFoot  10.395812 19.672878 9.788033
LeftToeBase  -6.863952 0.000000 -0.000000
RightUpLeg  -1.353876 -13.056852 -6.684376
RightLeg  40.574590 -0.000000 0.000000
RightFoot  22.973942 -0.241228 -16.188336
RightToeBase  -29.310289 0.000000 -0.000000
Spine  -15.597846 0.295193 -5.175610
Spine1  17.312432 3.139875 0.655671
Neck  11.717810 1.005456 -2.980845
Head  -8.818729 2.407434 2.614855
LeftShoulder  -7.918915 -9.654343 -29.120296
LeftArm  -2.894455 46.828281 -39.633892
LeftForeArm  22.283622 -0.000000 0.000000
LeftHand  2.114643 -4.598420 -2.927230
LeftHandThumb  0.000000 -0.000000 0.000000
RightShoulder  3.803534 8.142694 23.331305
RightArm  0.737039 -39.611036 40.633901
RightForeArm  35.574307 -0.000000 0.000000
RightHand  7.596288 14.476140 0.522076
RightHandThumb  0.000000 -0.000000 0.000000
